#!OML:ASF X:\für Bonn\!DataBase\2005_08_12_Daniel\c3d\Daniel.ASF
:FULLY-SPECIFIED
:DEGREES
108
root 9.74553 10.9366 -3.25921 -1268.65 147.405 163.482
lowerback 90.9088 -3.48637 2.33483
upperback 6.9215 -1.27671 -4.57423
thorax -10.8077 0.413927 -6.10407
lowerneck 2.49943 2.27098 -1.81976
upperneck 10.718 2.88714 1.80606
head 2.92806 1.40256 0.941981
rclavicle 1.74931e-014 -3.13086e-015
rhumerus -299.618 31.6652 284.791
rradius 26.8627
rwrist 36.79
rhand -27.6954 734.221
rfingers 7.12502
rthumb -1.0917 704.244
lclavicle 1.74931e-014 -3.13086e-015
lhumerus -297.531 13.7177 -305.043
lradius 18.0561
lwrist -26.2236
lhand -29.589 -729.3
lfingers 7.12502
lthumb -2.92052 -339.34
rfemur -90.775 -28.7985 56.6465
rtibia 101.836
rfoot 339.656 4.33851
rtoes 20.6214
lfemur -53.5366 23.9977 -6.99878
ltibia 130.635
lfoot -29.8774 -25.7554
ltoes 2.35829
109
root 9.90319 10.835 -3.21514 -1268.89 147.98 162.603
lowerback 91.4016 -3.601 2.6801
upperback 6.68455 -1.09969 -4.47673
thorax -10.9765 0.440825 -6.18016
lowerneck 2.30127 2.13656 -1.76786
upperneck 10.693 2.71202 1.80999
head 2.95977 1.31968 0.934655
rclavicle -2.06736e-014 -8.59744e-015
rhumerus -299.352 31.7823 284.543
rradius 26.7981
rwrist 38.2048
rhand -27.8092 733.88
rfingers 7.12502
rthumb -1.20166 703.904
lclavicle -2.06736e-014 -8.59744e-015
lhumerus -296.044 15.6683 -301.25
lradius 16.8358
lwrist -28.6437
lhand -30.2983 -729.799
lfingers 7.12502
lthumb -3.60557 -339.849
rfemur -91.1924 -28.6084 56.8347
rtibia 102.932
rfoot 339.493 4.85605
rtoes 20.9761
lfemur -53.2815 25.9568 -5.66091
ltibia 131.637
lfoot -28.9755 -26.77
ltoes 2.46019
110
root 10.0648 10.7334 -3.1721 -1269.05 148.538 161.719
lowerback 91.8139 -3.74393 3.03246
upperback 6.47545 -0.939808 -4.37745
thorax -11.126 0.459014 -6.24521
lowerneck 2.17376 2.03987 -1.75273
upperneck 10.6227 2.58256 1.84615
head 2.96143 1.25835 0.94269
rclavicle -2.06736e-014 4.30369e-014
rhumerus -299.171 31.8765 284.093
rradius 26.6294
rwrist 39.8364
rhand -27.9732 733.545
rfingers 7.12502
rthumb -1.36006 703.569
lclavicle -2.06736e-014 4.30369e-014
lhumerus -294.555 17.5362 -297.557
lradius 15.7637
lwrist -30.9119
lhand -31.1762 -730.326
lfingers 7.12502
lthumb -4.45333 -340.393
rfemur -91.7002 -28.4421 57.1087
rtibia 104.01
rfoot 339.299 5.31102
rtoes 20.9471
lfemur -53.0242 27.8984 -4.31064
ltibia 132.598
lfoot -28.0763 -27.7611
ltoes 2.57875
111
root 10.2318 10.6345 -3.12763 -1269.16 149.114 160.836
lowerback 92.1491 -3.88475 3.38957
upperback 6.29786 -0.776022 -4.28889
thorax -11.25 0.478657 -6.32346
lowerneck 2.09764 1.9553 -1.72904
upperneck 10.5508 2.46626 1.90507
head 2.95279 1.2042 0.955883
rclavicle -4.77083e-015 -2.65874e-015
rhumerus -299.118 31.9254 283.504
rradius 26.453
rwrist 41.5939
rhand -28.2291 733.232
rfingers 7.12502
rthumb -1.60715 703.258
lclavicle -4.77083e-015 -2.65874e-015
lhumerus -293.022 19.3199 -293.814
lradius 14.8236
lwrist -33.2624
lhand -32.3125 -731.037
lfingers 7.12502
lthumb -5.55044 -341.13
rfemur -92.2409 -28.3175 57.4257
rtibia 105.074
rfoot 339.155 5.81778
rtoes 20.9045
lfemur -52.7282 29.8337 -2.95178
ltibia 133.507
lfoot -27.1348 -28.7177
ltoes 2.84807
112
root 10.4032 10.5361 -3.08334 -1269.21 149.7 159.962
lowerback 92.4608 -3.99611 3.70429
upperback 6.10558 -0.618594 -4.17808
thorax -11.3967 0.489886 -6.3547
lowerneck 2.14451 1.91867 -1.68958
upperneck 10.4242 2.41556 1.90599
head 2.90249 1.1803 0.945943
rclavicle 3.33958e-014 -2.70906e-014
rhumerus -299.16 32.0147 282.811
rradius 26.2503
rwrist 43.3406
rhand -28.5317 732.97
rfingers 7.12502
rthumb -1.89942 702.999
lclavicle 3.33958e-014 -2.70906e-014
lhumerus -291.014 21.3949 -288.799
lradius 13.8409
lwrist -36.9238
lhand -33.7929 -732.114
lfingers 7.12502
lthumb -6.97964 -342.249
rfemur -92.7984 -28.239 57.7773
rtibia 106.131
rfoot 339.002 6.34632
rtoes 20.5385
lfemur -52.3697 31.7177 -1.61597
ltibia 134.351
lfoot -26.1322 -29.622
ltoes 3.27548
113
root 10.5803 10.4379 -3.03927 -1269.25 150.285 159.083
lowerback 92.7309 -4.1196 4.01017
upperback 5.94967 -0.478018 -4.06704
thorax -11.5073 0.495114 -6.37276
lowerneck 2.24854 1.91359 -1.62183
upperneck 10.2253 2.40662 1.89275
head 2.81693 1.17712 0.925382
rclavicle 3.18055e-015 -2.36119e-014
rhumerus -299.173 32.1308 282.232
rradius 26.057
rwrist 45.0353
rhand -28.9575 732.754
rfingers 7.12502
rthumb -2.31063 702.787
lclavicle 3.18055e-015 -2.36119e-014
lhumerus -289.095 23.3405 -284.021
lradius 13.0942
lwrist -40.32
lhand -35.6066 -733.544
lfingers 7.12502
lthumb -8.73014 -343.745
rfemur -93.3536 -28.2474 58.1424
rtibia 107.178
rfoot 338.848 6.94686
rtoes 19.9921
lfemur -51.8941 33.5321 -0.253804
ltibia 135.132
lfoot -25.0617 -30.5529
ltoes 4.03539
114
root 10.7609 10.3407 -2.99587 -1269.25 150.899 158.221
lowerback 92.92 -4.2571 4.32308
upperback 5.8179 -0.354691 -3.98743
thorax -11.6058 0.496561 -6.42411
lowerneck 2.49954 1.9236 -1.57465
upperneck 9.93381 2.41494 1.89903
head 2.67324 1.18166 0.911429
rclavicle 7.95139e-015 -1.11344e-013
rhumerus -299.22 32.2137 281.684
rradius 25.8199
rwrist 46.7572
rhand -29.4615 732.553
rfingers 7.12502
rthumb -2.79744 702.592
lclavicle 7.95139e-015 -1.11344e-013
lhumerus -287.855 24.9554 -280.567
lradius 12.7177
lwrist -42.618
lhand -37.5977 -735.19
lfingers 7.12502
lthumb -10.6512 -345.48
rfemur -93.8747 -28.2587 58.4801
rtibia 108.198
rfoot 338.688 7.62362
rtoes 19.5391
lfemur -51.3627 35.3036 1.08626
ltibia 135.858
lfoot -24.0359 -31.401
ltoes 4.73266
